<svg width="26" height="26" xmlns="http://www.w3.org/2000/svg">

 <g>
  <title>background</title>
  <rect fill="none" id="canvas_background" height="402" width="582" y="-1" x="-1"/>
 </g>
 <g>
  <title>Layer 1</title>
  <g id="surface1">
   <path fill="#dddddd" id="svg_1" d="m11,-0.03125c-0.83594,0 -1.65625,0.16406 -2.25,0.75c-0.59375,0.58594 -0.78125,1.41797 -0.78125,2.28125l-3.96875,0c-0.55078,0 -1,0.44922 -1,1l-1,0l0,2l22,0l0,-2l-1,0c0,-0.55078 -0.44922,-1 -1,-1l-3.96875,0c0,-0.86328 -0.1875,-1.69531 -0.78125,-2.28125c-0.59375,-0.58594 -1.41406,-0.75 -2.25,-0.75l-4,0zm0,2.0625l4,0c0.54688,0 0.71875,0.12891 0.78125,0.1875c0.0625,0.05859 0.1875,0.22266 0.1875,0.78125l-5.9375,0c0,-0.55859 0.125,-0.72266 0.1875,-0.78125c0.0625,-0.05859 0.23438,-0.1875 0.78125,-0.1875zm-7,4.96875l0,16c0,1.65234 1.34766,3 3,3l12,0c1.65234,0 3,-1.34766 3,-3l0,-16l-18,0zm4,3l2,0l0,12l-2,0l0,-12zm4,0l2,0l0,12l-2,0l0,-12zm4,0l2,0l0,12l-2,0l0,-12z"/>
  </g>
 </g>
</svg>